<svg id="wave" style="transform:rotate(0deg); transition: 0.3s" viewBox="0 0 1440 290" version="1.1" xmlns="http://www.w3.org/2000/svg"><defs><linearGradient id="sw-gradient-0" x1="0" x2="0" y1="1" y2="0"><stop stop-color="rgba(0, 0, 0, 1)" offset="0%"></stop><stop stop-color="rgba(18, 18, 18, 1)" offset="100%"></stop></linearGradient></defs><path style="transform:translate(0, 0px); opacity:1" fill="url(#sw-gradient-0)" d="M0,29L80,58C160,87,320,145,480,159.5C640,174,800,145,960,135.3C1120,126,1280,135,1440,149.8C1600,164,1760,184,1920,159.5C2080,135,2240,68,2400,43.5C2560,19,2720,39,2880,43.5C3040,48,3200,39,3360,53.2C3520,68,3680,106,3840,135.3C4000,164,4160,184,4320,183.7C4480,184,4640,164,4800,135.3C4960,106,5120,68,5280,82.2C5440,97,5600,164,5760,198.2C5920,232,6080,232,6240,217.5C6400,203,6560,174,6720,149.8C6880,126,7040,106,7200,111.2C7360,116,7520,145,7680,145C7840,145,8000,116,8160,96.7C8320,77,8480,68,8640,87C8800,106,8960,155,9120,164.3C9280,174,9440,145,9600,116C9760,87,9920,58,10080,58C10240,58,10400,87,10560,82.2C10720,77,10880,39,11040,33.8C11200,29,11360,58,11440,72.5L11520,87L11520,290L11440,290C11360,290,11200,290,11040,290C10880,290,10720,290,10560,290C10400,290,10240,290,10080,290C9920,290,9760,290,9600,290C9440,290,9280,290,9120,290C8960,290,8800,290,8640,290C8480,290,8320,290,8160,290C8000,290,7840,290,7680,290C7520,290,7360,290,7200,290C7040,290,6880,290,6720,290C6560,290,6400,290,6240,290C6080,290,5920,290,5760,290C5600,290,5440,290,5280,290C5120,290,4960,290,4800,290C4640,290,4480,290,4320,290C4160,290,4000,290,3840,290C3680,290,3520,290,3360,290C3200,290,3040,290,2880,290C2720,290,2560,290,2400,290C2240,290,2080,290,1920,290C1760,290,1600,290,1440,290C1280,290,1120,290,960,290C800,290,640,290,480,290C320,290,160,290,80,290L0,290Z"></path><defs><linearGradient id="sw-gradient-1" x1="0" x2="0" y1="1" y2="0"><stop stop-color="rgba(0, 11, 118, 1)" offset="0%"></stop><stop stop-color="rgba(0, 14, 147, 1)" offset="100%"></stop></linearGradient></defs><path style="transform:translate(0, 50px); opacity:0.9" fill="url(#sw-gradient-1)" d="M0,261L80,232C160,203,320,145,480,116C640,87,800,87,960,101.5C1120,116,1280,145,1440,145C1600,145,1760,116,1920,91.8C2080,68,2240,48,2400,53.2C2560,58,2720,87,2880,82.2C3040,77,3200,39,3360,53.2C3520,68,3680,135,3840,178.8C4000,222,4160,242,4320,227.2C4480,213,4640,164,4800,125.7C4960,87,5120,58,5280,48.3C5440,39,5600,48,5760,77.3C5920,106,6080,155,6240,159.5C6400,164,6560,126,6720,130.5C6880,135,7040,184,7200,174C7360,164,7520,97,7680,96.7C7840,97,8000,164,8160,203C8320,242,8480,251,8640,236.8C8800,222,8960,184,9120,154.7C9280,126,9440,106,9600,91.8C9760,77,9920,68,10080,72.5C10240,77,10400,97,10560,101.5C10720,106,10880,97,11040,120.8C11200,145,11360,203,11440,232L11520,261L11520,290L11440,290C11360,290,11200,290,11040,290C10880,290,10720,290,10560,290C10400,290,10240,290,10080,290C9920,290,9760,290,9600,290C9440,290,9280,290,9120,290C8960,290,8800,290,8640,290C8480,290,8320,290,8160,290C8000,290,7840,290,7680,290C7520,290,7360,290,7200,290C7040,290,6880,290,6720,290C6560,290,6400,290,6240,290C6080,290,5920,290,5760,290C5600,290,5440,290,5280,290C5120,290,4960,290,4800,290C4640,290,4480,290,4320,290C4160,290,4000,290,3840,290C3680,290,3520,290,3360,290C3200,290,3040,290,2880,290C2720,290,2560,290,2400,290C2240,290,2080,290,1920,290C1760,290,1600,290,1440,290C1280,290,1120,290,960,290C800,290,640,290,480,290C320,290,160,290,80,290L0,290Z"></path><defs><linearGradient id="sw-gradient-2" x1="0" x2="0" y1="1" y2="0"><stop stop-color="rgba(0, 11, 118, 1)" offset="0%"></stop><stop stop-color="rgba(0, 11, 118, 1)" offset="100%"></stop></linearGradient></defs><path style="transform:translate(0, 100px); opacity:0.8" fill="url(#sw-gradient-2)" d="M0,203L80,198.2C160,193,320,184,480,154.7C640,126,800,77,960,58C1120,39,1280,48,1440,53.2C1600,58,1760,58,1920,72.5C2080,87,2240,116,2400,116C2560,116,2720,87,2880,106.3C3040,126,3200,193,3360,217.5C3520,242,3680,222,3840,188.5C4000,155,4160,106,4320,91.8C4480,77,4640,97,4800,111.2C4960,126,5120,135,5280,145C5440,155,5600,164,5760,183.7C5920,203,6080,232,6240,227.2C6400,222,6560,184,6720,178.8C6880,174,7040,203,7200,193.3C7360,184,7520,135,7680,106.3C7840,77,8000,68,8160,58C8320,48,8480,39,8640,29C8800,19,8960,10,9120,38.7C9280,68,9440,135,9600,149.8C9760,164,9920,126,10080,135.3C10240,145,10400,203,10560,203C10720,203,10880,145,11040,145C11200,145,11360,203,11440,232L11520,261L11520,290L11440,290C11360,290,11200,290,11040,290C10880,290,10720,290,10560,290C10400,290,10240,290,10080,290C9920,290,9760,290,9600,290C9440,290,9280,290,9120,290C8960,290,8800,290,8640,290C8480,290,8320,290,8160,290C8000,290,7840,290,7680,290C7520,290,7360,290,7200,290C7040,290,6880,290,6720,290C6560,290,6400,290,6240,290C6080,290,5920,290,5760,290C5600,290,5440,290,5280,290C5120,290,4960,290,4800,290C4640,290,4480,290,4320,290C4160,290,4000,290,3840,290C3680,290,3520,290,3360,290C3200,290,3040,290,2880,290C2720,290,2560,290,2400,290C2240,290,2080,290,1920,290C1760,290,1600,290,1440,290C1280,290,1120,290,960,290C800,290,640,290,480,290C320,290,160,290,80,290L0,290Z"></path></svg>