<svg id="wave" style="transform:rotate(180deg); transition: 0.3s" viewBox="0 0 1440 290" version="1.1" xmlns="http://www.w3.org/2000/svg"><defs><linearGradient id="sw-gradient-0" x1="0" x2="0" y1="1" y2="0"><stop stop-color="rgba(0, 0, 0, 1)" offset="0%"></stop><stop stop-color="rgba(18, 18, 18, 1)" offset="100%"></stop></linearGradient></defs><path style="transform:translate(0, 0px); opacity:1" fill="url(#sw-gradient-0)" d="M0,58L80,62.8C160,68,320,77,480,111.2C640,145,800,203,960,193.3C1120,184,1280,106,1440,82.2C1600,58,1760,87,1920,82.2C2080,77,2240,39,2400,58C2560,77,2720,155,2880,193.3C3040,232,3200,232,3360,212.7C3520,193,3680,155,3840,159.5C4000,164,4160,213,4320,222.3C4480,232,4640,203,4800,174C4960,145,5120,116,5280,125.7C5440,135,5600,184,5760,198.2C5920,213,6080,193,6240,183.7C6400,174,6560,174,6720,149.8C6880,126,7040,77,7200,72.5C7360,68,7520,106,7680,106.3C7840,106,8000,68,8160,87C8320,106,8480,184,8640,198.2C8800,213,8960,164,9120,125.7C9280,87,9440,58,9600,43.5C9760,29,9920,29,10080,53.2C10240,77,10400,126,10560,145C10720,164,10880,155,11040,135.3C11200,116,11360,87,11440,72.5L11520,58L11520,290L11440,290C11360,290,11200,290,11040,290C10880,290,10720,290,10560,290C10400,290,10240,290,10080,290C9920,290,9760,290,9600,290C9440,290,9280,290,9120,290C8960,290,8800,290,8640,290C8480,290,8320,290,8160,290C8000,290,7840,290,7680,290C7520,290,7360,290,7200,290C7040,290,6880,290,6720,290C6560,290,6400,290,6240,290C6080,290,5920,290,5760,290C5600,290,5440,290,5280,290C5120,290,4960,290,4800,290C4640,290,4480,290,4320,290C4160,290,4000,290,3840,290C3680,290,3520,290,3360,290C3200,290,3040,290,2880,290C2720,290,2560,290,2400,290C2240,290,2080,290,1920,290C1760,290,1600,290,1440,290C1280,290,1120,290,960,290C800,290,640,290,480,290C320,290,160,290,80,290L0,290Z"></path><defs><linearGradient id="sw-gradient-1" x1="0" x2="0" y1="1" y2="0"><stop stop-color="rgba(0, 11, 118, 1)" offset="0%"></stop><stop stop-color="rgba(0, 14, 147, 1)" offset="100%"></stop></linearGradient></defs><path style="transform:translate(0, 50px); opacity:0.9" fill="url(#sw-gradient-1)" d="M0,58L80,91.8C160,126,320,193,480,222.3C640,251,800,242,960,222.3C1120,203,1280,174,1440,135.3C1600,97,1760,48,1920,53.2C2080,58,2240,116,2400,130.5C2560,145,2720,116,2880,91.8C3040,68,3200,48,3360,33.8C3520,19,3680,10,3840,4.8C4000,0,4160,0,4320,29C4480,58,4640,116,4800,125.7C4960,135,5120,97,5280,67.7C5440,39,5600,19,5760,9.7C5920,0,6080,0,6240,38.7C6400,77,6560,155,6720,178.8C6880,203,7040,174,7200,145C7360,116,7520,87,7680,96.7C7840,106,8000,155,8160,145C8320,135,8480,68,8640,38.7C8800,10,8960,19,9120,43.5C9280,68,9440,106,9600,145C9760,184,9920,222,10080,222.3C10240,222,10400,184,10560,174C10720,164,10880,184,11040,159.5C11200,135,11360,68,11440,33.8L11520,0L11520,290L11440,290C11360,290,11200,290,11040,290C10880,290,10720,290,10560,290C10400,290,10240,290,10080,290C9920,290,9760,290,9600,290C9440,290,9280,290,9120,290C8960,290,8800,290,8640,290C8480,290,8320,290,8160,290C8000,290,7840,290,7680,290C7520,290,7360,290,7200,290C7040,290,6880,290,6720,290C6560,290,6400,290,6240,290C6080,290,5920,290,5760,290C5600,290,5440,290,5280,290C5120,290,4960,290,4800,290C4640,290,4480,290,4320,290C4160,290,4000,290,3840,290C3680,290,3520,290,3360,290C3200,290,3040,290,2880,290C2720,290,2560,290,2400,290C2240,290,2080,290,1920,290C1760,290,1600,290,1440,290C1280,290,1120,290,960,290C800,290,640,290,480,290C320,290,160,290,80,290L0,290Z"></path><defs><linearGradient id="sw-gradient-2" x1="0" x2="0" y1="1" y2="0"><stop stop-color="rgba(0, 11, 118, 1)" offset="0%"></stop><stop stop-color="rgba(0, 11, 118, 1)" offset="100%"></stop></linearGradient></defs><path style="transform:translate(0, 100px); opacity:0.8" fill="url(#sw-gradient-2)" d="M0,174L80,154.7C160,135,320,97,480,106.3C640,116,800,174,960,188.5C1120,203,1280,174,1440,169.2C1600,164,1760,184,1920,164.3C2080,145,2240,87,2400,91.8C2560,97,2720,164,2880,183.7C3040,203,3200,174,3360,178.8C3520,184,3680,222,3840,227.2C4000,232,4160,203,4320,183.7C4480,164,4640,155,4800,154.7C4960,155,5120,164,5280,149.8C5440,135,5600,97,5760,82.2C5920,68,6080,77,6240,87C6400,97,6560,106,6720,91.8C6880,77,7040,39,7200,38.7C7360,39,7520,77,7680,91.8C7840,106,8000,97,8160,101.5C8320,106,8480,126,8640,120.8C8800,116,8960,87,9120,96.7C9280,106,9440,155,9600,149.8C9760,145,9920,87,10080,77.3C10240,68,10400,106,10560,106.3C10720,106,10880,68,11040,67.7C11200,68,11360,106,11440,125.7L11520,145L11520,290L11440,290C11360,290,11200,290,11040,290C10880,290,10720,290,10560,290C10400,290,10240,290,10080,290C9920,290,9760,290,9600,290C9440,290,9280,290,9120,290C8960,290,8800,290,8640,290C8480,290,8320,290,8160,290C8000,290,7840,290,7680,290C7520,290,7360,290,7200,290C7040,290,6880,290,6720,290C6560,290,6400,290,6240,290C6080,290,5920,290,5760,290C5600,290,5440,290,5280,290C5120,290,4960,290,4800,290C4640,290,4480,290,4320,290C4160,290,4000,290,3840,290C3680,290,3520,290,3360,290C3200,290,3040,290,2880,290C2720,290,2560,290,2400,290C2240,290,2080,290,1920,290C1760,290,1600,290,1440,290C1280,290,1120,290,960,290C800,290,640,290,480,290C320,290,160,290,80,290L0,290Z"></path></svg>